<svg width="125" height="25" viewBox="0 0 125 25" fill="none" xmlns="http://www.w3.org/2000/svg">
<path d="M7.74025 20.336C6.38025 20.336 5.06025 20.168 3.78025 19.832C2.50025 19.496 1.46025 19.048 0.66025 18.488L2.22025 14.984C2.97225 15.48 3.84425 15.88 4.83625 16.184C5.82825 16.488 6.80425 16.64 7.76425 16.64C9.58825 16.64 10.5003 16.184 10.5003 15.272C10.5003 14.792 10.2363 14.44 9.70825 14.216C9.19625 13.976 8.36425 13.728 7.21225 13.472C5.94825 13.2 4.89225 12.912 4.04425 12.608C3.19625 12.288 2.46825 11.784 1.86025 11.096C1.25225 10.408 0.94825 9.48 0.94825 8.312C0.94825 7.288 1.22825 6.368 1.78825 5.552C2.34825 4.72 3.18025 4.064 4.28425 3.584C5.40425 3.104 6.77225 2.864 8.38825 2.864C9.49225 2.864 10.5803 2.992 11.6523 3.248C12.7243 3.488 13.6683 3.848 14.4843 4.328L13.0203 7.856C11.4203 6.992 9.86825 6.56 8.36425 6.56C7.42025 6.56 6.73225 6.704 6.30025 6.992C5.86825 7.264 5.65225 7.624 5.65225 8.072C5.65225 8.52 5.90825 8.856 6.42025 9.08C6.93225 9.304 7.75625 9.536 8.89225 9.776C10.1723 10.048 11.2283 10.344 12.0603 10.664C12.9083 10.968 13.6363 11.464 14.2443 12.152C14.8683 12.824 15.1803 13.744 15.1803 14.912C15.1803 15.92 14.9003 16.832 14.3403 17.648C13.7803 18.464 12.9403 19.12 11.8203 19.616C10.7003 20.096 9.34025 20.336 7.74025 20.336ZM30.8393 6.992V20H26.4953V18.608C26.0153 19.136 25.4393 19.536 24.7673 19.808C24.0953 20.08 23.3833 20.216 22.6313 20.216C20.9513 20.216 19.6073 19.72 18.5993 18.728C17.6073 17.736 17.1113 16.248 17.1113 14.264V6.992H21.6713V13.52C21.6713 14.496 21.8553 15.208 22.2233 15.656C22.5913 16.104 23.1273 16.328 23.8313 16.328C24.5513 16.328 25.1353 16.08 25.5833 15.584C26.0473 15.072 26.2793 14.296 26.2793 13.256V6.992H30.8393ZM41.9605 6.776C43.1445 6.776 44.2165 7.056 45.1765 7.616C46.1525 8.16 46.9205 8.944 47.4805 9.968C48.0565 10.976 48.3445 12.152 48.3445 13.496C48.3445 14.84 48.0565 16.024 47.4805 17.048C46.9205 18.056 46.1525 18.84 45.1765 19.4C44.2165 19.944 43.1445 20.216 41.9605 20.216C40.4405 20.216 39.2325 19.76 38.3365 18.848V24.656H33.7765V6.992H38.1205V8.288C38.9685 7.28 40.2485 6.776 41.9605 6.776ZM41.0005 16.592C41.8005 16.592 42.4565 16.32 42.9685 15.776C43.4805 15.216 43.7365 14.456 43.7365 13.496C43.7365 12.536 43.4805 11.784 42.9685 11.24C42.4565 10.68 41.8005 10.4 41.0005 10.4C40.2005 10.4 39.5445 10.68 39.0325 11.24C38.5205 11.784 38.2645 12.536 38.2645 13.496C38.2645 14.456 38.5205 15.216 39.0325 15.776C39.5445 16.32 40.2005 16.592 41.0005 16.592ZM57.424 16.736C58.048 16.736 58.584 16.648 59.032 16.472C59.496 16.296 59.96 16.008 60.424 15.608L62.8 18.104C61.568 19.512 59.728 20.216 57.28 20.216C55.76 20.216 54.424 19.928 53.272 19.352C52.12 18.776 51.224 17.976 50.584 16.952C49.96 15.928 49.648 14.768 49.648 13.472C49.648 12.192 49.96 11.048 50.584 10.04C51.208 9.016 52.064 8.216 53.152 7.64C54.256 7.064 55.488 6.776 56.848 6.776C58.112 6.776 59.264 7.04 60.304 7.568C61.36 8.08 62.2 8.84 62.824 9.848C63.448 10.84 63.76 12.024 63.76 13.4L54.472 15.176C54.968 16.216 55.952 16.736 57.424 16.736ZM56.872 10.016C56.088 10.016 55.448 10.264 54.952 10.76C54.456 11.24 54.176 11.936 54.112 12.848L59.392 11.816C59.232 11.272 58.928 10.84 58.48 10.52C58.032 10.184 57.496 10.016 56.872 10.016ZM70.2064 8.552C70.6704 7.96 71.2704 7.52 72.0064 7.232C72.7584 6.928 73.6144 6.776 74.5744 6.776V10.88C74.1584 10.832 73.8144 10.808 73.5424 10.808C72.5664 10.808 71.7984 11.072 71.2384 11.6C70.6944 12.128 70.4224 12.936 70.4224 14.024V20H65.8624V6.992H70.2064V8.552Z" fill="#FFCA33"/>
<path d="M82.6231 20.336C81.2631 20.336 79.9431 20.168 78.6631 19.832C77.3831 19.496 76.3431 19.048 75.5431 18.488L77.1031 14.984C77.8551 15.48 78.7271 15.88 79.7191 16.184C80.7111 16.488 81.6871 16.64 82.6471 16.64C84.4711 16.64 85.3831 16.184 85.3831 15.272C85.3831 14.792 85.1191 14.44 84.5911 14.216C84.0791 13.976 83.2471 13.728 82.0951 13.472C80.8311 13.2 79.7751 12.912 78.9271 12.608C78.0791 12.288 77.3511 11.784 76.7431 11.096C76.1351 10.408 75.8311 9.48 75.8311 8.312C75.8311 7.288 76.1111 6.368 76.6711 5.552C77.2311 4.72 78.0631 4.064 79.1671 3.584C80.2871 3.104 81.6551 2.864 83.2711 2.864C84.3751 2.864 85.4631 2.992 86.5351 3.248C87.6071 3.488 88.5511 3.848 89.3671 4.328L87.9031 7.856C86.3031 6.992 84.7511 6.56 83.2471 6.56C82.3031 6.56 81.6151 6.704 81.1831 6.992C80.7511 7.264 80.5351 7.624 80.5351 8.072C80.5351 8.52 80.7911 8.856 81.3031 9.08C81.8151 9.304 82.6391 9.536 83.7751 9.776C85.0551 10.048 86.1111 10.344 86.9431 10.664C87.7911 10.968 88.5191 11.464 89.1271 12.152C89.7511 12.824 90.0631 13.744 90.0631 14.912C90.0631 15.92 89.7831 16.832 89.2231 17.648C88.6631 18.464 87.8231 19.12 86.7031 19.616C85.5831 20.096 84.2231 20.336 82.6231 20.336ZM105.722 6.992V20H101.378V18.608C100.898 19.136 100.322 19.536 99.6501 19.808C98.9781 20.08 98.2661 20.216 97.5141 20.216C95.8341 20.216 94.4901 19.72 93.4821 18.728C92.4901 17.736 91.9941 16.248 91.9941 14.264V6.992H96.5541V13.52C96.5541 14.496 96.7381 15.208 97.1061 15.656C97.4741 16.104 98.0101 16.328 98.7141 16.328C99.4341 16.328 100.018 16.08 100.466 15.584C100.93 15.072 101.162 14.296 101.162 13.256V6.992H105.722ZM108.659 6.992H113.219V20H108.659V6.992ZM110.939 5.552C110.107 5.552 109.435 5.32 108.923 4.856C108.411 4.392 108.155 3.816 108.155 3.128C108.155 2.44 108.411 1.864 108.923 1.4C109.435 0.935999 110.107 0.704 110.939 0.704C111.771 0.704 112.443 0.927999 112.955 1.376C113.467 1.808 113.723 2.368 113.723 3.056C113.723 3.776 113.467 4.376 112.955 4.856C112.443 5.32 111.771 5.552 110.939 5.552ZM124.559 19.472C124.175 19.712 123.703 19.896 123.143 20.024C122.599 20.152 122.015 20.216 121.391 20.216C119.695 20.216 118.391 19.8 117.479 18.968C116.583 18.136 116.135 16.896 116.135 15.248V4.088H120.695V7.472H123.647V10.88H120.695V15.2C120.695 15.68 120.815 16.048 121.055 16.304C121.295 16.56 121.623 16.688 122.039 16.688C122.567 16.688 123.031 16.552 123.431 16.28L124.559 19.472Z" fill="#041A3F"/>
</svg>
